M48
;GenerationSoftware,Autodesk,EAGLE,9.7.0*%
;CreationDate,2021-08-05T17:43:34Z*%
FMAT,2
ICI,OFF
METRIC,TZ,000.000
T5C0.350
T4C0.610
T3C1.016
T2C2.500
%
G90
M71
T2
X6000Y7500
X6000Y-7500
X26500Y-6000
X26500Y6000
T3
X18730Y5080
X21270Y5080
X18730Y2540
X21270Y2540
X18730Y0
X21270Y0
X18730Y-2540
X21270Y-2540
X18730Y-5080
X21270Y-5080
T4
X2426Y3962
X1714Y3962
X2069Y-3912
X2069Y3962
X2426Y-3912
X1714Y-3912
T5
X10000Y5000
X10000Y7000
X18000Y9000
X20000Y9000
X10000Y3000
X12000Y9000
X14000Y9000
X16000Y9000
X16500Y700
X16629Y2871
X16000Y-3000
X10000Y-5000
X22000Y9000
X10000Y9000
M30