G04 EAGLE Gerber RS-274X export*
G75*
%MOMM*%
%FSLAX34Y34*%
%LPD*%
%INTop Copper*%
%IPPOS*%
%AMOC8*
5,1,8,0,0,1.08239X$1,22.5*%
G01*
G04 Define Apertures*
%ADD10P,1.64956X8X112.5*%
%ADD11R,0.762000X0.304800*%
%ADD12R,1.041400X0.355600*%
%ADD13C,1.117600*%
%ADD14C,0.756400*%
%ADD15C,0.152400*%
%ADD16C,0.304800*%
G36*
X241410Y-64879D02*
X241911Y-64536D01*
X242238Y-64025D01*
X242340Y-63476D01*
X242340Y-55493D01*
X242384Y-55386D01*
X242500Y-54803D01*
X242500Y54803D01*
X242384Y55386D01*
X242340Y55493D01*
X242340Y64507D01*
X242384Y64614D01*
X242500Y65197D01*
X242500Y98316D01*
X242379Y98910D01*
X242036Y99411D01*
X241525Y99738D01*
X240976Y99840D01*
X86524Y99840D01*
X85930Y99719D01*
X85429Y99376D01*
X85102Y98865D01*
X85000Y98316D01*
X85000Y45074D01*
X84994Y45014D01*
X84992Y45009D01*
X84913Y45000D01*
X32009Y45000D01*
X31415Y44879D01*
X30914Y44536D01*
X30587Y44025D01*
X30486Y43427D01*
X30601Y42893D01*
X31369Y41039D01*
X31369Y38209D01*
X30286Y35595D01*
X28286Y33595D01*
X25672Y32512D01*
X22603Y32512D01*
X22460Y32540D01*
X22323Y32512D01*
X19017Y32512D01*
X18904Y32534D01*
X18796Y32512D01*
X15730Y32512D01*
X13116Y33595D01*
X12762Y33949D01*
X12256Y34284D01*
X11660Y34396D01*
X11067Y34266D01*
X10573Y33915D01*
X10254Y33399D01*
X10160Y32872D01*
X10160Y-32364D01*
X10281Y-32958D01*
X10624Y-33459D01*
X11135Y-33785D01*
X11733Y-33887D01*
X12323Y-33747D01*
X12762Y-33441D01*
X13116Y-33087D01*
X15730Y-32004D01*
X18815Y-32004D01*
X18928Y-32026D01*
X19036Y-32004D01*
X22341Y-32004D01*
X22484Y-32032D01*
X22621Y-32004D01*
X25672Y-32004D01*
X28286Y-33087D01*
X30286Y-35087D01*
X31369Y-37701D01*
X31369Y-40531D01*
X30391Y-42893D01*
X30275Y-43488D01*
X30400Y-44082D01*
X30747Y-44579D01*
X31261Y-44902D01*
X31799Y-45000D01*
X79926Y-45000D01*
X79986Y-45006D01*
X79991Y-45008D01*
X80000Y-45087D01*
X80000Y-63427D01*
X80092Y-63949D01*
X80110Y-63997D01*
X80426Y-64515D01*
X80920Y-64867D01*
X81542Y-65000D01*
X240816Y-65000D01*
X241410Y-64879D01*
G37*
%LPC*%
G36*
X208912Y-59944D02*
X203556Y-54588D01*
X203556Y-47012D01*
X208912Y-41656D01*
X216496Y-41656D01*
X216977Y-41975D01*
X217574Y-42086D01*
X218166Y-41956D01*
X218627Y-41640D01*
X231364Y-28903D01*
X231699Y-28398D01*
X231810Y-27826D01*
X231810Y12198D01*
X231689Y12792D01*
X231346Y13293D01*
X230835Y13619D01*
X230237Y13721D01*
X229647Y13581D01*
X229208Y13275D01*
X221860Y5927D01*
X221525Y5421D01*
X221414Y4825D01*
X221544Y4233D01*
X221844Y3795D01*
X221844Y-3788D01*
X216488Y-9144D01*
X208912Y-9144D01*
X203556Y-3788D01*
X203556Y3788D01*
X208912Y9144D01*
X216496Y9144D01*
X216977Y8825D01*
X217574Y8714D01*
X218166Y8844D01*
X218627Y9160D01*
X228316Y18849D01*
X228651Y19354D01*
X228762Y19926D01*
X228762Y34550D01*
X228641Y35144D01*
X228298Y35645D01*
X227787Y35971D01*
X227189Y36073D01*
X226599Y35933D01*
X226160Y35627D01*
X221860Y31327D01*
X221525Y30821D01*
X221414Y30225D01*
X221544Y29633D01*
X221844Y29195D01*
X221844Y21612D01*
X216488Y16256D01*
X208912Y16256D01*
X203556Y21612D01*
X203556Y29188D01*
X208912Y34544D01*
X216496Y34544D01*
X216977Y34225D01*
X217574Y34114D01*
X218166Y34244D01*
X218627Y34560D01*
X225268Y41201D01*
X225603Y41706D01*
X225714Y42278D01*
X225714Y59422D01*
X225593Y60016D01*
X225268Y60499D01*
X218714Y67053D01*
X218208Y67388D01*
X217636Y67499D01*
X212913Y67499D01*
X212318Y67379D01*
X211818Y67036D01*
X211491Y66525D01*
X211390Y65927D01*
X211529Y65337D01*
X211835Y64898D01*
X214986Y61747D01*
X214986Y61468D01*
X215107Y60874D01*
X215450Y60373D01*
X215961Y60046D01*
X216482Y59949D01*
X221844Y54588D01*
X221844Y47012D01*
X216488Y41656D01*
X208912Y41656D01*
X203556Y47012D01*
X203556Y54588D01*
X208540Y59572D01*
X208875Y60077D01*
X208986Y60674D01*
X208856Y61266D01*
X208540Y61727D01*
X206262Y64005D01*
X205756Y64340D01*
X205184Y64451D01*
X174858Y64451D01*
X174264Y64331D01*
X173763Y63988D01*
X173436Y63477D01*
X173334Y62927D01*
X173334Y41101D01*
X168183Y35950D01*
X167848Y35444D01*
X167736Y34848D01*
X167867Y34255D01*
X168217Y33761D01*
X168677Y33464D01*
X169296Y33207D01*
X170789Y31715D01*
X171597Y29765D01*
X171597Y27654D01*
X170789Y25704D01*
X169296Y24211D01*
X167346Y23403D01*
X165235Y23403D01*
X163006Y24327D01*
X162985Y24341D01*
X162413Y24452D01*
X152908Y24452D01*
X152314Y24331D01*
X151813Y23988D01*
X151486Y23477D01*
X151446Y23262D01*
X138684Y23262D01*
X138684Y25076D01*
X139254Y25646D01*
X139589Y26151D01*
X139700Y26723D01*
X139700Y53277D01*
X139579Y53871D01*
X139254Y54354D01*
X138684Y54924D01*
X138684Y56738D01*
X151384Y56738D01*
X151384Y56310D01*
X151505Y55716D01*
X151848Y55215D01*
X152359Y54888D01*
X152908Y54786D01*
X158023Y54786D01*
X158617Y54907D01*
X159100Y55232D01*
X159172Y55304D01*
X159507Y55809D01*
X159618Y56381D01*
X159618Y69292D01*
X168612Y78286D01*
X222947Y78286D01*
X236382Y64851D01*
X236382Y-30351D01*
X234597Y-32136D01*
X221860Y-44873D01*
X221525Y-45379D01*
X221414Y-45975D01*
X221544Y-46567D01*
X221844Y-47005D01*
X221844Y-54588D01*
X216488Y-59944D01*
X208912Y-59944D01*
G37*
G36*
X112696Y62098D02*
X111803Y62991D01*
X111803Y67809D01*
X112696Y68702D01*
X124372Y68702D01*
X125265Y67809D01*
X125265Y62991D01*
X124372Y62098D01*
X112696Y62098D01*
G37*
G36*
X145796Y58262D02*
X145796Y61564D01*
X149896Y61564D01*
X151384Y60076D01*
X151384Y58262D01*
X145796Y58262D01*
G37*
G36*
X138684Y58262D02*
X138684Y60076D01*
X140172Y61564D01*
X144272Y61564D01*
X144272Y58262D01*
X138684Y58262D01*
G37*
G36*
X177140Y51562D02*
X177140Y55008D01*
X183092Y60960D01*
X186538Y60960D01*
X186538Y51562D01*
X177140Y51562D01*
G37*
G36*
X188062Y51562D02*
X188062Y60960D01*
X191508Y60960D01*
X197460Y55008D01*
X197460Y51562D01*
X188062Y51562D01*
G37*
G36*
X188062Y40640D02*
X188062Y50038D01*
X197460Y50038D01*
X197460Y46592D01*
X191508Y40640D01*
X188062Y40640D01*
G37*
G36*
X183092Y40640D02*
X177140Y46592D01*
X177140Y50038D01*
X186538Y50038D01*
X186538Y40640D01*
X183092Y40640D01*
G37*
G36*
X177140Y26162D02*
X177140Y29608D01*
X183092Y35560D01*
X186538Y35560D01*
X186538Y26162D01*
X177140Y26162D01*
G37*
G36*
X188062Y26162D02*
X188062Y35560D01*
X191508Y35560D01*
X197460Y29608D01*
X197460Y26162D01*
X188062Y26162D01*
G37*
G36*
X188062Y15240D02*
X188062Y24638D01*
X197460Y24638D01*
X197460Y21192D01*
X191508Y15240D01*
X188062Y15240D01*
G37*
G36*
X183092Y15240D02*
X177140Y21192D01*
X177140Y24638D01*
X186538Y24638D01*
X186538Y15240D01*
X183092Y15240D01*
G37*
G36*
X138684Y18262D02*
X138684Y21738D01*
X151384Y21738D01*
X151384Y18262D01*
X138684Y18262D01*
G37*
G36*
X138684Y-1738D02*
X138684Y76D01*
X139254Y646D01*
X139589Y1151D01*
X139700Y1723D01*
X139700Y13277D01*
X139579Y13871D01*
X139254Y14354D01*
X138684Y14924D01*
X138684Y16738D01*
X151452Y16738D01*
X151505Y16478D01*
X151848Y15977D01*
X152359Y15650D01*
X152908Y15548D01*
X160763Y15548D01*
X163558Y12752D01*
X164064Y12417D01*
X164636Y12306D01*
X166055Y12306D01*
X168006Y11498D01*
X169498Y10006D01*
X170306Y8055D01*
X170306Y5945D01*
X169498Y3994D01*
X168006Y2502D01*
X166055Y1694D01*
X164636Y1694D01*
X164041Y1573D01*
X163558Y1248D01*
X161763Y-548D01*
X152908Y-548D01*
X152314Y-669D01*
X151813Y-1012D01*
X151486Y-1523D01*
X151446Y-1738D01*
X138684Y-1738D01*
G37*
G36*
X183512Y-34544D02*
X178156Y-29188D01*
X178156Y-21198D01*
X178035Y-20603D01*
X177710Y-20120D01*
X176016Y-18426D01*
X175510Y-18091D01*
X174938Y-17980D01*
X153741Y-17980D01*
X153480Y-17807D01*
X152884Y-17696D01*
X152291Y-17826D01*
X151797Y-18177D01*
X151478Y-18693D01*
X151384Y-19220D01*
X151384Y-20076D01*
X149896Y-21564D01*
X145796Y-21564D01*
X145796Y-16738D01*
X138684Y-16738D01*
X138684Y-14924D01*
X139254Y-14354D01*
X139589Y-13849D01*
X139700Y-13277D01*
X139700Y-6723D01*
X139579Y-6129D01*
X139254Y-5646D01*
X138684Y-5076D01*
X138684Y-3262D01*
X151452Y-3262D01*
X151505Y-3522D01*
X151848Y-4023D01*
X152359Y-4350D01*
X152908Y-4452D01*
X159608Y-4452D01*
X162021Y-6865D01*
X162527Y-7200D01*
X163099Y-7312D01*
X175046Y-7312D01*
X175641Y-7191D01*
X176124Y-6865D01*
X177710Y-5280D01*
X178045Y-4774D01*
X178156Y-4202D01*
X178156Y3788D01*
X183512Y9144D01*
X191088Y9144D01*
X196444Y3788D01*
X196444Y-3788D01*
X191088Y-9144D01*
X183098Y-9144D01*
X182503Y-9265D01*
X182020Y-9590D01*
X179988Y-11622D01*
X179653Y-12128D01*
X179542Y-12724D01*
X179672Y-13317D01*
X179988Y-13778D01*
X182020Y-15810D01*
X182526Y-16145D01*
X183098Y-16256D01*
X191088Y-16256D01*
X196444Y-21612D01*
X196444Y-29188D01*
X191088Y-34544D01*
X183512Y-34544D01*
G37*
G36*
X208912Y-34544D02*
X203556Y-29188D01*
X203556Y-21612D01*
X208912Y-16256D01*
X216488Y-16256D01*
X221844Y-21612D01*
X221844Y-29188D01*
X216488Y-34544D01*
X208912Y-34544D01*
G37*
G36*
X140172Y-21564D02*
X138684Y-20076D01*
X138684Y-18262D01*
X144272Y-18262D01*
X144272Y-21564D01*
X140172Y-21564D01*
G37*
G36*
X112696Y-28702D02*
X111803Y-27809D01*
X111803Y-22991D01*
X112696Y-22098D01*
X124372Y-22098D01*
X125265Y-22991D01*
X125265Y-27809D01*
X124372Y-28702D01*
X112696Y-28702D01*
G37*
G36*
X183512Y-59944D02*
X178156Y-54588D01*
X178156Y-47012D01*
X183512Y-41656D01*
X191088Y-41656D01*
X196444Y-47012D01*
X196444Y-54588D01*
X191088Y-59944D01*
X183512Y-59944D01*
G37*
%LPD*%
D10*
X212700Y-50800D03*
X187300Y-50800D03*
X212700Y-25400D03*
X187300Y-25400D03*
X212700Y0D03*
X187300Y0D03*
X212700Y25400D03*
X187300Y25400D03*
X212700Y50800D03*
X187300Y50800D03*
D11*
X145034Y57500D03*
X145034Y52500D03*
X145034Y47500D03*
X145034Y42500D03*
X145034Y37500D03*
X145034Y32500D03*
X145034Y27500D03*
X145034Y22500D03*
X145034Y17500D03*
X145034Y12500D03*
X145034Y7500D03*
X145034Y2500D03*
X145034Y-2500D03*
X145034Y-7500D03*
X145034Y-12500D03*
X145034Y-17500D03*
D12*
X118534Y65400D03*
X118534Y-25400D03*
D13*
X24257Y-39116D03*
X17145Y-39116D03*
X24257Y39624D03*
X17145Y39624D03*
X20687Y-39116D03*
X20687Y39624D03*
D14*
X100000Y90000D03*
X100000Y50000D03*
X100000Y70000D03*
X180000Y90000D03*
X160000Y90000D03*
X140000Y90000D03*
X120000Y90000D03*
X100000Y30000D03*
X200000Y90000D03*
X220000Y90000D03*
X100000Y-50000D03*
X160000Y-30000D03*
D15*
X234096Y63904D02*
X222000Y76000D01*
X234096Y63904D02*
X234096Y-29404D01*
X212700Y-50800D01*
X159601Y52500D02*
X145034Y52500D01*
X159601Y52500D02*
X161904Y54803D01*
X161904Y68345D01*
X169559Y76000D01*
X222000Y76000D01*
X220359Y72952D02*
X231048Y62263D01*
X231048Y18348D01*
X212700Y0D01*
X162601Y47500D02*
X145034Y47500D01*
X162601Y47500D02*
X164952Y49851D01*
X164952Y67082D01*
X170822Y72952D01*
X220359Y72952D01*
X228000Y61000D02*
X228000Y40700D01*
X212700Y25400D01*
X228000Y61000D02*
X219215Y69785D01*
X162601Y42500D02*
X145034Y42500D01*
X162601Y42500D02*
X168000Y47899D01*
X168000Y65820D01*
X171966Y69785D01*
X219215Y69785D01*
X212700Y60800D02*
X212700Y50800D01*
X212700Y60800D02*
X206763Y66737D01*
X171048Y64557D02*
X171048Y42048D01*
X171048Y64557D02*
X173228Y66737D01*
X206763Y66737D01*
X171048Y42048D02*
X166500Y37500D01*
X145034Y37500D01*
D14*
X166291Y28709D03*
D16*
X162500Y32500D02*
X145034Y32500D01*
X162500Y32500D02*
X166291Y28709D01*
X165082Y27500D02*
X145034Y27500D01*
X165082Y27500D02*
X166291Y28709D01*
D14*
X165000Y7000D03*
D16*
X164500Y7500D02*
X145034Y7500D01*
X164500Y7500D02*
X165000Y7000D01*
X159500Y12500D02*
X145034Y12500D01*
X159500Y12500D02*
X165000Y7000D01*
X160500Y2500D02*
X145034Y2500D01*
X160500Y2500D02*
X165000Y7000D01*
X176940Y-10360D02*
X187300Y0D01*
X176940Y-10360D02*
X161205Y-10360D01*
X158345Y-7500D01*
X145034Y-7500D01*
X176832Y-14932D02*
X187300Y-25400D01*
X176832Y-14932D02*
X155086Y-14932D01*
X152654Y-12500D01*
X145034Y-12500D01*
M02*
