G04 EAGLE Gerber RS-274X export*
G75*
%MOMM*%
%FSLAX34Y34*%
%LPD*%
%INSilkscreen Bottom*%
%IPPOS*%
%AMOC8*
5,1,8,0,0,1.08239X$1,22.5*%
G01*
G04 Define Apertures*
%ADD10C,0.127000*%
%ADD11C,0.152400*%
G36*
X155158Y-10552D02*
X155512Y-10533D01*
X155856Y-10502D01*
X156190Y-10458D01*
X156514Y-10402D01*
X156828Y-10334D01*
X157132Y-10253D01*
X157426Y-10159D01*
X157710Y-10054D01*
X157984Y-9935D01*
X158502Y-9661D01*
X158981Y-9337D01*
X159419Y-8964D01*
X159811Y-8546D01*
X160151Y-8090D01*
X160301Y-7848D01*
X160438Y-7596D01*
X160562Y-7334D01*
X160673Y-7063D01*
X160772Y-6783D01*
X160856Y-6492D01*
X160928Y-6192D01*
X160987Y-5883D01*
X161033Y-5564D01*
X161066Y-5235D01*
X161085Y-4897D01*
X161092Y-4550D01*
X161080Y-4067D01*
X161044Y-3605D01*
X160983Y-3163D01*
X160899Y-2741D01*
X160791Y-2339D01*
X160658Y-1958D01*
X160502Y-1597D01*
X160321Y-1256D01*
X160117Y-937D01*
X159889Y-639D01*
X159638Y-363D01*
X159364Y-109D01*
X159067Y123D01*
X158746Y333D01*
X158402Y522D01*
X158035Y688D01*
X157509Y-897D01*
X157771Y-1013D01*
X158016Y-1144D01*
X158246Y-1292D01*
X158460Y-1457D01*
X158658Y-1637D01*
X158840Y-1834D01*
X159006Y-2047D01*
X159156Y-2277D01*
X159290Y-2520D01*
X159405Y-2774D01*
X159503Y-3039D01*
X159583Y-3316D01*
X159645Y-3603D01*
X159690Y-3902D01*
X159716Y-4211D01*
X159725Y-4532D01*
X159705Y-5030D01*
X159643Y-5500D01*
X159540Y-5941D01*
X159396Y-6354D01*
X159210Y-6738D01*
X158984Y-7094D01*
X158716Y-7421D01*
X158407Y-7720D01*
X158062Y-7987D01*
X157687Y-8218D01*
X157281Y-8414D01*
X156845Y-8574D01*
X156378Y-8699D01*
X155881Y-8788D01*
X155353Y-8841D01*
X154794Y-8859D01*
X154241Y-8840D01*
X153716Y-8785D01*
X153218Y-8692D01*
X152748Y-8562D01*
X152306Y-8395D01*
X151892Y-8191D01*
X151505Y-7950D01*
X151146Y-7672D01*
X150823Y-7362D01*
X150543Y-7026D01*
X150306Y-6664D01*
X150112Y-6276D01*
X149961Y-5862D01*
X149853Y-5421D01*
X149788Y-4955D01*
X149767Y-4462D01*
X149777Y-4143D01*
X149807Y-3834D01*
X149857Y-3535D01*
X149927Y-3246D01*
X150018Y-2967D01*
X150128Y-2699D01*
X150258Y-2440D01*
X150408Y-2191D01*
X150579Y-1953D01*
X150769Y-1724D01*
X150980Y-1506D01*
X151210Y-1297D01*
X151461Y-1099D01*
X151732Y-911D01*
X152022Y-733D01*
X152333Y-564D01*
X151650Y802D01*
X151263Y602D01*
X150901Y382D01*
X150562Y144D01*
X150246Y-114D01*
X149955Y-392D01*
X149688Y-688D01*
X149444Y-1004D01*
X149224Y-1340D01*
X149029Y-1691D01*
X148860Y-2057D01*
X148717Y-2436D01*
X148600Y-2830D01*
X148509Y-3237D01*
X148444Y-3658D01*
X148405Y-4092D01*
X148392Y-4541D01*
X148404Y-4999D01*
X148440Y-5442D01*
X148501Y-5869D01*
X148586Y-6280D01*
X148695Y-6676D01*
X148828Y-7056D01*
X148985Y-7420D01*
X149167Y-7768D01*
X149371Y-8099D01*
X149596Y-8409D01*
X149842Y-8699D01*
X150109Y-8968D01*
X150396Y-9218D01*
X150704Y-9447D01*
X151033Y-9655D01*
X151383Y-9844D01*
X151751Y-10011D01*
X152136Y-10156D01*
X152538Y-10279D01*
X152956Y-10379D01*
X153391Y-10458D01*
X153842Y-10513D01*
X154310Y-10547D01*
X154794Y-10558D01*
X155158Y-10552D01*
G37*
G36*
X150177Y2638D02*
X150644Y2898D01*
X151081Y3183D01*
X151488Y3493D01*
X151871Y3819D01*
X152235Y4153D01*
X152580Y4495D01*
X152907Y4846D01*
X153519Y5552D01*
X154085Y6252D01*
X154628Y6914D01*
X155171Y7508D01*
X155446Y7775D01*
X155727Y8015D01*
X156015Y8228D01*
X156310Y8415D01*
X156617Y8566D01*
X156945Y8674D01*
X157292Y8739D01*
X157658Y8761D01*
X157905Y8752D01*
X158138Y8724D01*
X158356Y8677D01*
X158560Y8612D01*
X158750Y8528D01*
X158926Y8426D01*
X159088Y8305D01*
X159235Y8165D01*
X159366Y8009D01*
X159480Y7838D01*
X159576Y7653D01*
X159655Y7454D01*
X159717Y7239D01*
X159760Y7011D01*
X159787Y6768D01*
X159795Y6510D01*
X159787Y6264D01*
X159761Y6028D01*
X159718Y5804D01*
X159659Y5591D01*
X159582Y5389D01*
X159488Y5199D01*
X159376Y5019D01*
X159248Y4850D01*
X159104Y4695D01*
X158947Y4558D01*
X158775Y4437D01*
X158590Y4332D01*
X158391Y4245D01*
X158178Y4174D01*
X157951Y4121D01*
X157711Y4084D01*
X157860Y2472D01*
X158220Y2530D01*
X158562Y2616D01*
X158885Y2731D01*
X159189Y2874D01*
X159474Y3045D01*
X159740Y3245D01*
X159987Y3473D01*
X160216Y3729D01*
X160421Y4009D01*
X160599Y4308D01*
X160750Y4627D01*
X160873Y4965D01*
X160969Y5322D01*
X161037Y5699D01*
X161078Y6095D01*
X161092Y6510D01*
X161078Y6963D01*
X161037Y7389D01*
X160968Y7788D01*
X160872Y8160D01*
X160748Y8505D01*
X160597Y8823D01*
X160418Y9114D01*
X160211Y9378D01*
X159980Y9613D01*
X159725Y9817D01*
X159447Y9989D01*
X159146Y10130D01*
X158822Y10240D01*
X158475Y10318D01*
X158104Y10365D01*
X157711Y10381D01*
X157352Y10361D01*
X156995Y10299D01*
X156639Y10196D01*
X156283Y10053D01*
X155929Y9869D01*
X155574Y9644D01*
X155219Y9380D01*
X154864Y9076D01*
X154461Y8678D01*
X153960Y8132D01*
X153362Y7439D01*
X152666Y6597D01*
X152264Y6120D01*
X151883Y5693D01*
X151522Y5318D01*
X151181Y4995D01*
X150854Y4718D01*
X150532Y4482D01*
X150217Y4289D01*
X149907Y4136D01*
X149907Y10574D01*
X148567Y10574D01*
X148567Y2402D01*
X149679Y2402D01*
X150177Y2638D01*
G37*
D10*
X142217Y17000D02*
X142217Y-17000D01*
X117783Y-17000D02*
X117783Y17000D01*
D11*
X1397Y42672D02*
X1397Y-41910D01*
X1397Y42672D02*
X7239Y42672D01*
X55499Y42672D02*
X55499Y35306D01*
X55499Y-41910D02*
X34163Y-41910D01*
X55499Y-41910D02*
X55499Y-34798D01*
X7239Y-41910D02*
X1397Y-41910D01*
X34163Y42672D02*
X55499Y42672D01*
M02*
