G04 EAGLE Gerber RS-274X export*
G75*
%MOMM*%
%FSLAX34Y34*%
%LPD*%
%INSoldermask Top*%
%IPPOS*%
%AMOC8*
5,1,8,0,0,1.08239X$1,22.5*%
G01*
G04 Define Apertures*
%ADD10C,2.703200*%
%ADD11P,1.8695X8X112.5*%
%ADD12R,0.965200X0.508000*%
%ADD13R,1.244600X0.558800*%
%ADD14C,1.320800*%
%ADD15C,0.959600*%
D10*
X60000Y-75000D03*
X265000Y-60000D03*
X265000Y60000D03*
X60000Y75000D03*
D11*
X212700Y-50800D03*
X187300Y-50800D03*
X212700Y-25400D03*
X187300Y-25400D03*
X212700Y0D03*
X187300Y0D03*
X212700Y25400D03*
X187300Y25400D03*
X212700Y50800D03*
X187300Y50800D03*
D12*
X145034Y57500D03*
X145034Y52500D03*
X145034Y47500D03*
X145034Y42500D03*
X145034Y37500D03*
X145034Y32500D03*
X145034Y27500D03*
X145034Y22500D03*
X145034Y17500D03*
X145034Y12500D03*
X145034Y7500D03*
X145034Y2500D03*
X145034Y-2500D03*
X145034Y-7500D03*
X145034Y-12500D03*
X145034Y-17500D03*
D13*
X118534Y65400D03*
X118534Y-25400D03*
D14*
X24257Y-39116D03*
X17145Y-39116D03*
X24257Y39624D03*
X17145Y39624D03*
X20687Y-39116D03*
X20687Y39624D03*
D15*
X100000Y90000D03*
X100000Y50000D03*
X100000Y70000D03*
X180000Y90000D03*
X160000Y90000D03*
X140000Y90000D03*
X120000Y90000D03*
X100000Y30000D03*
X200000Y90000D03*
X220000Y90000D03*
X100000Y-50000D03*
X160000Y-30000D03*
X166291Y28709D03*
X165000Y7000D03*
M02*
